# xmcd CD database file
#
# Track frame offsets:
#	150
#	23565
#	39070
#	55392
#	80860
#	115000
#	142455
#	160147
#	176250
#	191325
#	209150
#	229985
#	247657
#	261370
#	277337
#	286545
#
# Disc length: 4012 seconds
#
# Revision: 1
# Processed by: cddbd v1.4PL0 Copyright (c) Steve Scherf et al.
# Submitted via: Gronk 1.4
#
DISCID=e50faa10
DTITLE=Billy Joel - Best
DYEAR=1900
DGENRE=blues
TTITLE0=The Stranger
TTITLE1=Movin´ out (Anthony´s Song)
TTITLE2=Just the Way you are
TTITLE3=Piano Man
TTITLE4=Scenes from an Italian Restaurant
TTITLE5=New York State of Mind
TTITLE6=Only the good die young
TTITLE7=Vienna
TTITLE8=She´s always a woman 
TTITLE9=Get it right the first time
TTITLE10=Everybody has a dream
TTITLE11=Say goodbye to Hollywood
TTITLE12=Root Beer Rag
TTITLE13=Weekend Song
TTITLE14=Souvenir
TTITLE15=You´re my home
EXTD=
EXTT0=
EXTT1=
EXTT2=
EXTT3=
EXTT4=
EXTT5=
EXTT6=
EXTT7=
EXTT8=
EXTT9=
EXTT10=
EXTT11=
EXTT12=
EXTT13=
EXTT14=
EXTT15=
PLAYORDER=
